<svg width="25" height="24" viewBox="0 0 25 24" fill="none" xmlns="http://www.w3.org/2000/svg">
<g clip-path="url(#clip0_1555_20628)">
<path d="M10.3971 16.2589L12.2461 14.4099L14.0951 16.2589C14.3759 16.5397 14.8406 16.5397 15.1213 16.2589C15.4021 15.9782 15.4021 15.5135 15.1213 15.2328L13.2723 13.3837L15.1213 11.5347C15.4021 11.254 15.4021 10.7893 15.1213 10.5085C14.8406 10.2278 14.3759 10.2278 14.0951 10.5085L12.2461 12.3576L10.3971 10.5085C10.1163 10.2278 9.65165 10.2278 9.3709 10.5085C9.09016 10.7893 9.09016 11.254 9.3709 11.5347L11.2199 13.3837L9.3709 15.2328C9.09016 15.5135 9.09016 15.9782 9.3709 16.2589C9.65165 16.5397 10.1163 16.5397 10.3971 16.2589ZM19.2647 3.21888H18.2966V2.2508C18.2966 1.71835 17.861 1.28271 17.3285 1.28271C16.7961 1.28271 16.3605 1.71835 16.3605 2.2508V3.21888H8.6158V2.2508C8.6158 1.71835 8.18016 1.28271 7.64772 1.28271C7.11527 1.28271 6.67964 1.71835 6.67964 2.2508V3.21888H5.71155C4.63698 3.21888 3.78507 4.09015 3.78507 5.15504L3.77539 18.7082C3.77539 19.7731 4.63698 20.6444 5.71155 20.6444H19.2647C20.3296 20.6444 21.2009 19.7731 21.2009 18.7082V5.15504C21.2009 4.09015 20.3296 3.21888 19.2647 3.21888ZM18.2966 18.7082H6.67964C6.14719 18.7082 5.71155 18.2726 5.71155 17.7401V8.05929H19.2647V17.7401C19.2647 18.2726 18.8291 18.7082 18.2966 18.7082Z" fill="#BDBDBD"/>
</g>
<defs>
<clipPath id="clip0_1555_20628">
<rect width="23.234" height="23.234" fill="white" transform="translate(0.871094 0.314453)"/>
</clipPath>
</defs>
</svg>
